<?xml version="1.0" encoding="utf-8"?>
<svg xmlns="http://www.w3.org/2000/svg" version="1.0" width="367pt" height="553pt" viewBox="0 0 367 553" preserveAspectRatio="xMidYMid meet">
  <style>
    .body-zone {
      fill: #d8d8d8;
      stroke: #000;
      stroke-opacity: 0;
      cursor: pointer;
      transition: fill 0.3s;
    }

    .body-zone:hover {
      fill: #ffa07a;
    }
  </style>  

  <g transform="translate(0.000000,553.000000) scale(0.100000,-0.100000)" fill="#000000" stroke="none">
    <path d="M1190 5241 c-115 -24 -186 -112 -197 -242 -3 -38 -10 -72 -14 -75 -26 -16 0 -144 35 -172 38 -29 66 -167 46 -226 -20 -61 -101 -116 -315 -211 -95 -43 -126 -70 -156 -138 -25 -59 -30 -188 -10 -267 6 -25 16 -122 21 -217 9 -162 9 -174 -9 -205 -28 -48 -49 -140 -57 -248 -7 -102 -31 -231 -66 -348 -21 -72 -22 -73 -75 -98 -32 -15 -59 -36 -67 -52 -8 -15 -37 -49 -65 -77 -36 -35 -47 -53 -40 -61 13 -16 65 -2 96 28 l23 21 0 -64 c-1 -35 -5 -109 -9 -164 -9 -107 -7 -125 15 -125 8 0 14 -4 14 -10 0 -5 17 -8 38 -7 l37 2 27 80 c29 86 35 87 17 5 -11 -54 -2 -83 18 -58 18 23 82 270 92 353 7 70 18 100 85 237 100 207 117 261 126 388 9 115 51 255 64 213 15 -47 5 -160 -33 -393 -22 -135 -46 -301 -52 -370 -21 -235 8 -514 84 -810 33 -125 35 -146 35 -285 0 -124 -5 -166 -24 -244 -47 -184 -32 -315 71 -616 55 -161 61 -192 57 -298 -2 -52 -6 -62 -42 -101 -22 -24 -40 -48 -40 -53 0 -20 29 -34 77 -39 26 -2 71 -6 98 -9 36 -3 57 0 73 11 21 14 21 20 16 129 -3 63 -11 130 -18 148 -23 55 -28 176 -14 353 14 189 14 188 3 369 -7 124 -6 135 20 223 26 89 26 100 24 305 -2 143 3 292 16 457 11 135 21 236 22 225 21 -171 41 -557 36 -705 -5 -163 -4 -181 18 -260 26 -96 34 -205 22 -330 -5 -54 -3 -140 5 -235 15 -174 10 -343 -11 -400 -9 -22 -18 -88 -21 -148 -5 -99 -4 -109 15 -128 16 -16 28 -19 57 -15 20 3 64 8 97 11 33 3 68 8 78 11 27 9 20 38 -20 80 -38 38 -38 39 -41 134 -4 94 -3 98 57 277 34 100 68 212 76 250 22 102 19 242 -7 343 -16 66 -22 120 -24 240 -2 152 -1 158 42 335 102 425 107 653 24 1145 -37 215 -50 367 -34 383 4 4 18 -17 32 -46 19 -40 27 -77 32 -157 10 -125 32 -193 131 -394 38 -76 71 -153 73 -170 27 -181 75 -382 99 -413 28 -38 32 1 12 104 -3 16 7 -8 22 -52 28 -80 28 -80 66 -82 20 -1 37 2 37 6 0 5 10 11 21 14 18 5 21 11 16 39 -4 18 -9 96 -13 173 l-7 139 32 -27 c31 -26 101 -39 101 -19 0 4 -18 26 -41 47 -22 22 -54 59 -70 82 -20 28 -43 47 -73 58 -28 11 -48 26 -55 43 -29 62 -71 259 -80 374 -12 134 -31 225 -61 276 -18 30 -19 43 -10 185 5 83 17 202 25 262 9 61 13 130 10 155 -8 55 -39 127 -68 159 -12 13 -89 56 -172 96 -173 83 -231 123 -251 170 -15 38 -19 121 -5 129 4 3 11 24 15 47 4 27 15 48 31 61 13 10 29 36 35 56 12 45 13 109 1 116 -4 3 -10 36 -13 73 -5 71 -38 152 -74 185 -54 47 -147 73 -214 59z m151 -39 c72 -37 107 -94 120 -193 6 -41 15 -84 22 -97 16 -34 -11 -134 -40 -147 -14 -6 -24 -21 -28 -45 -3 -19 -13 -52 -22 -72 -19 -44 -12 -108 17 -156 25 -40 138 -114 255 -165 143 -62 164 -76 193 -132 33 -66 39 -159 19 -311 -9 -66 -19 -176 -22 -245 -5 -115 -4 -130 14 -160 28 -47 48 -142 60 -284 10 -114 54 -313 83 -373 8 -16 25 -29 44 -34 18 -4 41 -18 52 -31 11 -12 45 -50 77 -84 45 -49 54 -63 39 -63 -11 0 -35 13 -54 30 -19 16 -39 29 -44 30 -5 0 -7 -73 -3 -176 4 -98 5 -175 2 -173 -2 3 -9 38 -16 79 -11 74 -22 100 -36 87 -7 -7 11 -139 23 -170 3 -9 2 -17 -3 -17 -4 0 -14 26 -21 58 -19 84 -32 122 -43 122 -14 0 -11 -39 10 -115 26 -93 -1 -59 -30 37 -32 109 -58 103 -35 -8 8 -38 13 -71 11 -73 -6 -5 -7 0 -44 134 -17 61 -37 155 -45 210 -13 90 -21 114 -85 243 -94 189 -122 274 -127 385 -3 70 -10 101 -34 157 -16 37 -30 75 -30 83 0 8 16 77 35 153 19 76 32 140 30 142 -7 7 -10 -5 -57 -188 -52 -204 -52 -236 -5 -520 57 -339 60 -375 54 -605 -6 -234 -18 -323 -77 -557 -38 -150 -40 -164 -40 -313 0 -130 4 -169 23 -238 17 -65 22 -107 21 -202 -1 -135 -7 -165 -89 -410 -67 -203 -67 -203 -59 -296 6 -73 9 -81 46 -121 36 -39 38 -44 22 -55 -10 -7 -36 -13 -58 -14 -23 0 -67 -3 -98 -5 -35 -3 -59 0 -64 7 -14 23 -3 220 14 263 14 33 17 72 16 201 -1 88 -1 239 -2 335 -1 96 0 211 0 255 1 60 -4 98 -23 155 -23 71 -24 86 -21 275 2 172 -7 357 -34 692 -6 74 -19 102 -29 61 -2 -13 -14 -144 -25 -293 -16 -206 -19 -312 -14 -445 6 -175 6 -175 -26 -295 -29 -110 -31 -127 -24 -205 9 -87 9 -138 3 -490 -3 -174 -1 -211 13 -246 18 -43 29 -239 14 -262 -9 -15 -188 -7 -219 9 -16 9 -14 14 21 54 31 36 40 55 45 97 12 100 7 130 -62 341 -100 306 -110 404 -63 592 16 61 21 117 23 235 2 151 0 159 -39 315 -67 269 -77 347 -77 625 l0 245 49 285 c33 197 46 300 42 333 -7 66 -87 377 -96 377 -4 0 7 -59 25 -130 35 -140 35 -146 -3 -255 -12 -35 -23 -98 -26 -151 -7 -111 -31 -182 -128 -383 -61 -125 -72 -156 -84 -240 -8 -53 -28 -145 -45 -206 -36 -133 -38 -139 -43 -134 -3 2 2 33 10 68 15 62 13 98 -4 87 -5 -3 -21 -44 -37 -91 -15 -47 -32 -85 -37 -85 -6 0 -7 8 -3 18 31 75 45 162 25 162 -9 0 -20 -34 -41 -127 -7 -29 -15 -53 -19 -53 -4 0 -1 28 6 63 16 73 18 127 5 127 -12 0 -18 -19 -30 -99 -6 -35 -13 -66 -15 -69 -3 -3 -3 74 1 172 3 97 3 176 -2 176 -4 0 -23 -13 -42 -30 -18 -17 -43 -30 -55 -30 -24 0 -30 -8 104 133 25 26 54 47 65 47 26 0 37 14 56 75 39 123 59 218 72 353 16 153 30 215 63 272 17 30 18 44 12 95 -5 33 -9 100 -9 149 -1 49 -8 128 -17 175 -22 119 -16 211 19 284 28 55 32 59 115 98 282 132 330 167 351 255 10 41 9 58 -2 95 -8 24 -18 60 -21 80 -4 25 -13 38 -26 42 -37 10 -65 132 -36 156 11 10 16 30 16 72 0 32 5 70 11 86 50 134 195 191 320 125z"/>
    <path d="M3108 5240 c-147 -23 -238 -122 -238 -260 0 -30 -9 -54 -30 -85 -34 -50 -38 -71 -12 -79 14 -5 17 -17 16 -78 0 -40 -2 -77 -3 -83 -13 -42 6 -54 99 -64 l55 -6 6 -50 c4 -27 10 -59 14 -71 7 -23 -32 -79 -64 -89 -21 -6 -222 -229 -251 -277 -16 -27 -19 -53 -20 -153 0 -66 -1 -145 -2 -175 0 -30 7 -79 15 -107 12 -40 14 -78 10 -157 -4 -75 -1 -137 13 -227 11 -75 18 -181 18 -269 1 -162 -2 -173 -100 -342 l-44 -77 21 -78 c24 -92 27 -96 77 -111 38 -11 39 -13 66 -104 15 -51 43 -131 63 -178 77 -185 93 -233 123 -356 18 -70 45 -155 62 -188 28 -55 32 -76 44 -226 15 -185 17 -194 49 -375 28 -151 42 -368 27 -406 -8 -20 -35 -36 -134 -78 -67 -29 -150 -63 -183 -76 -158 -59 -160 -60 -163 -82 -7 -46 35 -49 422 -39 327 8 327 8 286 182 -30 127 -24 208 30 394 86 296 80 429 -32 770 -58 176 -54 139 -50 606 1 143 0 268 -3 276 -4 9 5 27 21 44 32 35 59 94 68 152 8 53 -4 125 -50 291 -45 164 -51 233 -29 341 16 83 28 127 102 375 32 108 36 134 40 270 6 187 -6 245 -83 395 -50 98 -56 118 -61 188 -6 86 -2 98 77 227 73 119 87 224 41 312 -53 103 -163 146 -313 123z m175 -21 c87 -24 149 -115 148 -220 0 -67 -18 -115 -85 -222 -86 -139 -84 -224 11 -405 70 -133 88 -218 80 -387 -6 -123 -16 -169 -90 -415 -82 -273 -85 -363 -17 -600 36 -128 41 -155 37 -226 -3 -80 -21 -126 -64 -170 -13 -13 -16 -70 -18 -392 l-3 -377 50 -155 c73 -228 88 -302 88 -456 0 -126 -2 -137 -45 -290 -60 -208 -68 -311 -35 -443 21 -85 21 -93 6 -116 -9 -14 -29 -26 -48 -29 -18 -3 -162 -8 -319 -11 -273 -5 -287 -5 -310 14 l-24 19 30 12 c17 7 80 31 140 55 228 88 306 126 317 154 18 47 3 282 -30 466 -17 94 -36 238 -41 320 -10 154 -20 200 -53 247 -10 15 -30 76 -44 135 -35 147 -58 218 -116 352 -49 115 -98 262 -98 294 0 11 8 17 24 17 35 0 52 25 37 56 -17 38 -14 69 19 168 17 50 32 107 35 127 4 25 31 70 82 140 228 309 307 453 324 592 6 45 19 123 29 172 10 50 24 134 30 189 7 54 20 118 31 143 10 24 19 52 18 61 0 10 -4 6 -8 -8 -5 -14 -16 -40 -25 -58 -10 -19 -22 -77 -27 -130 -5 -54 -19 -140 -30 -192 -11 -52 -24 -130 -28 -172 -13 -127 -76 -243 -294 -546 -105 -144 -114 -161 -120 -212 -3 -30 -20 -90 -37 -133 -23 -55 -30 -86 -25 -105 3 -15 9 -40 12 -56 l6 -29 -49 5 c-90 9 -106 23 -129 112 l-19 78 23 42 c60 104 111 212 155 331 74 197 173 432 212 505 36 64 36 64 24 122 -10 43 -11 101 -4 216 4 86 8 173 8 192 0 36 -50 158 -60 147 -3 -3 6 -27 20 -53 30 -56 33 -119 16 -312 -8 -91 -7 -125 5 -176 l14 -64 -49 -98 c-28 -55 -82 -180 -121 -279 -38 -99 -76 -196 -84 -215 -13 -33 -14 -30 -14 68 -1 56 -10 168 -22 250 -16 112 -19 171 -14 248 5 76 2 117 -9 160 -20 78 -16 392 5 421 43 59 219 247 251 268 60 40 74 68 60 121 -7 24 -12 58 -12 74 0 36 -23 50 -82 50 -24 0 -53 6 -63 14 -16 11 -17 18 -8 42 12 31 11 73 -1 92 -4 7 -2 20 5 29 11 13 9 18 -14 35 l-27 20 29 41 c21 32 29 58 34 109 11 119 66 188 179 223 52 17 169 19 221 4z"/>
  </g>
  
  <ellipse id="cabeza" class="body-zone" cx="123.532" cy="59.846" rx="19.683" ry="19.605" />
  <ellipse id="tronco_frontal" class="body-zone" cx="122.633" cy="156.762" rx="37.904" ry="36.889" />
  <ellipse id="abdomen" class="body-zone" cx="123.982" cy="228.688" rx="27.321" ry="26.83" />
  <ellipse id="brazos" class="body-zone" cx="66.737" cy="226.038" rx="10.433" ry="10.701" />
  <ellipse id="manos" class="body-zone" cx="201.259" cy="284.849" rx="10.433" ry="10.701" />
  <ellipse id="pelvis" class="body-zone" cx="122.887" cy="276.12" rx="16.208" ry="16.14" />
  <ellipse id="piernas" class="body-zone" cx="104.381" cy="389.011" rx="11.938" ry="12.529" />
  <ellipse id="pies" class="body-zone" cx="320.041" cy="508.871" rx="12.744" ry="12.857" />
  <ellipse id="tronco_posterior" class="body-zone" cx="341.43" cy="140.134" rx="13.539" ry="14.341" />
  <ellipse id="cuello" class="body-zone" cx="314.768" cy="102.97" rx="10.834" ry="11.214" />  
</svg>